<svg xmlns="http://www.w3.org/2000/svg" width="30.625" height="30.625" viewBox="0 0 30.625 30.625">
  <path id="Icon_awesome-facebook-square" data-name="Icon awesome-facebook-square" d="M27.344,2.188H3.281A3.281,3.281,0,0,0,0,5.469V29.531a3.281,3.281,0,0,0,3.281,3.281h9.382V22.4H8.357V17.5h4.307V13.765c0-4.249,2.529-6.6,6.4-6.6a26.09,26.09,0,0,1,3.8.331v4.17H20.725a2.451,2.451,0,0,0-2.763,2.648V17.5h4.7l-.752,4.9h-3.95V32.813h9.382a3.281,3.281,0,0,0,3.281-3.281V5.469a3.281,3.281,0,0,0-3.281-3.281Z" transform="translate(0 -2.188)" fill="#333131"/>
</svg>
