<svg xmlns="http://www.w3.org/2000/svg" width="30.642" height="30.635" viewBox="0 0 30.642 30.635">
  <path id="Icon_awesome-instagram" data-name="Icon awesome-instagram" d="M15.319,9.639a7.854,7.854,0,1,0,7.854,7.854A7.842,7.842,0,0,0,15.319,9.639Zm0,12.961a5.106,5.106,0,1,1,5.106-5.106A5.116,5.116,0,0,1,15.319,22.6ZM25.327,9.317A1.832,1.832,0,1,1,23.5,7.485,1.828,1.828,0,0,1,25.327,9.317Zm5.2,1.859a9.066,9.066,0,0,0-2.475-6.419,9.126,9.126,0,0,0-6.419-2.475c-2.529-.144-10.11-.144-12.64,0A9.113,9.113,0,0,0,2.577,4.751,9.1,9.1,0,0,0,.1,11.17C-.041,13.7-.041,21.28.1,23.81a9.066,9.066,0,0,0,2.475,6.419A9.137,9.137,0,0,0,9,32.7c2.529.144,10.11.144,12.64,0a9.066,9.066,0,0,0,6.419-2.475,9.126,9.126,0,0,0,2.475-6.419C30.673,21.28,30.673,13.706,30.529,11.177ZM27.262,26.523a5.17,5.17,0,0,1-2.912,2.912c-2.017.8-6.8.615-9.03.615s-7.021.178-9.03-.615a5.17,5.17,0,0,1-2.912-2.912c-.8-2.017-.615-6.8-.615-9.03s-.178-7.021.615-9.03A5.17,5.17,0,0,1,6.289,5.551c2.017-.8,6.8-.615,9.03-.615s7.021-.178,9.03.615a5.17,5.17,0,0,1,2.912,2.912c.8,2.017.615,6.8.615,9.03S28.062,24.514,27.262,26.523Z" transform="translate(0.005 -2.176)" fill="#333131"/>
</svg>
