<svg xmlns="http://www.w3.org/2000/svg" width="30.625" height="30.625" viewBox="0 0 30.625 30.625">
  <path id="Icon_awesome-linkedin" data-name="Icon awesome-linkedin" d="M28.438,2.188H2.181A2.2,2.2,0,0,0,0,4.4V30.6a2.2,2.2,0,0,0,2.181,2.208H28.438A2.2,2.2,0,0,0,30.625,30.6V4.4A2.2,2.2,0,0,0,28.438,2.188ZM9.256,28.438H4.717V13.822H9.263V28.438ZM6.986,11.826A2.632,2.632,0,1,1,9.618,9.194,2.633,2.633,0,0,1,6.986,11.826ZM26.271,28.438H21.731V21.328c0-1.7-.034-3.876-2.358-3.876-2.365,0-2.728,1.846-2.728,3.753v7.232H12.106V13.822h4.354v2h.062a4.781,4.781,0,0,1,4.3-2.358c4.594,0,5.448,3.028,5.448,6.966Z" transform="translate(0 -2.188)" fill="#333131"/>
</svg>
