<svg xmlns="http://www.w3.org/2000/svg" width="30.625" height="30.625" viewBox="0 0 30.625 30.625">
  <path id="Icon_awesome-twitter-square" data-name="Icon awesome-twitter-square" d="M27.344,2.188H3.281A3.282,3.282,0,0,0,0,5.469V29.531a3.282,3.282,0,0,0,3.281,3.281H27.344a3.282,3.282,0,0,0,3.281-3.281V5.469A3.282,3.282,0,0,0,27.344,2.188ZM24,13.043c.014.191.014.39.014.581A12.669,12.669,0,0,1,11.259,26.38a12.7,12.7,0,0,1-6.884-2.01,9.445,9.445,0,0,0,1.08.055,8.989,8.989,0,0,0,5.564-1.914,4.489,4.489,0,0,1-4.19-3.11,4.832,4.832,0,0,0,2.023-.082,4.484,4.484,0,0,1-3.589-4.4v-.055a4.48,4.48,0,0,0,2.023.567,4.474,4.474,0,0,1-2-3.732A4.427,4.427,0,0,1,5.9,9.434a12.73,12.73,0,0,0,9.242,4.689,4.493,4.493,0,0,1,7.649-4.095,8.785,8.785,0,0,0,2.844-1.08,4.472,4.472,0,0,1-1.969,2.468,8.922,8.922,0,0,0,2.584-.7A9.437,9.437,0,0,1,24,13.043Z" transform="translate(0 -2.188)" fill="#333131"/>
</svg>
