<svg id="Layer_1" data-name="Layer 1" xmlns="http://www.w3.org/2000/svg" viewBox="0 0 2381.41 649.39"><defs><style>.cls-1,.cls-10,.cls-2,.cls-3,.cls-4,.cls-8,.cls-9{font-size:30.55px;}.cls-1,.cls-3{fill:#f05053;}.cls-1,.cls-2{font-family:Blacksword;}.cls-2,.cls-4{fill:#f96;}.cls-10,.cls-3,.cls-4,.cls-8,.cls-9{font-family:Magneto-Bold, Magneto;font-weight:700;}.cls-5{fill:#353333;}.cls-6{fill:#57eeab;}.cls-7{fill:#51f183;}.cls-8{fill:#11ffbd;}.cls-9{fill:#aaffa9;}.cls-10{fill:#333131;}.cls-11{fill:#fffd8c;}.cls-12{fill:#ff8480;}</style></defs><title>logo</title><text class="cls-1" transform="translate(330.41 447.51)">D</text><text class="cls-2" transform="translate(328.91 446.08)">D</text><text class="cls-3" transform="translate(374.76 399.89)">D</text><text class="cls-4" transform="translate(369.44 399.89)">D</text><path class="cls-5" d="M445.51,103.77Q404.64,77.82,343.2,77.82l-56.07.09q56.92,1.36,95.52,25.86,48.21,30.58,48.21,88.35,0,44.79-31.08,94.72-41.11,65.84-119.44,102.05-72.19,33.3-155.17,33.29H188q83,0,155.17-33.29,78.32-36.21,119.44-102.05,31.08-49.93,31.08-94.72Q493.72,134.36,445.51,103.77Z" transform="translate(591.85 227.22)"/><path class="cls-5" d="M214.41,368l69.81-196.93H221.36L146.22,383Q180.53,383,214.41,368Z" transform="translate(591.85 227.22)"/><path class="cls-6" d="M399.78,286.84q31.08-49.93,31.08-94.72,0-57.76-48.21-88.35-38.59-24.49-95.52-25.86c-2.24,0-4.5-.09-6.79-.09L43.43,78.2,6.28,138.62l236.13.88q43.56,0,64.61,16.15Q330.51,174,330.51,216.1q0,25.71-19.57,64.13-21.79,43.56-69.14,73.17A217.94,217.94,0,0,1,214.41,368q-33.89,15-68.19,15l75.14-211.95H133L44.41,422.18h80.76q83,0,155.17-33.29Q358.66,352.68,399.78,286.84Z" transform="translate(591.85 227.22)"/><path class="cls-5" d="M-20.11-191.76q0,13.89-9.64,29.38-12.76,20.43-37.06,31.66a113.45,113.45,0,0,1-48.13,10.33H-140l27.49-77.9H-85.1l-23.31,65.75q15,0,29.65-9.19t21.45-22.7q6.06-11.91,6.07-19.89,0-13.05-7.29-18.75-6.53-5-20-5l-73.26-.27,11.53-18.75,73.49-.12q19.06,0,31.74,8.05Q-20.12-209.67-20.11-191.76Z" transform="translate(591.85 227.22)"/><path class="cls-7" d="M-39.61-191.76q0,13.89-9.64,29.38Q-62-141.95-86.31-130.72a113.45,113.45,0,0,1-48.13,10.33H-159.5l27.49-77.9h27.41l-23.31,65.75q15,0,29.65-9.19t21.45-22.7q6.06-11.91,6.07-19.89,0-13.05-7.29-18.75-6.52-5-20-5l-73.26-.27,11.53-18.75,73.49-.12q19.07,0,31.74,8.05Q-39.61-209.67-39.61-191.76Z" transform="translate(591.85 227.22)"/><text class="cls-8" transform="translate(403.48 349.89)">D</text><text class="cls-9" transform="translate(398.41 349.89)">D</text><text class="cls-10" transform="translate(328.91 199.93)">Digital</text><text class="cls-10" transform="translate(301.48 238.87)">Dasg</text><polygon class="cls-6" points="69.46 444.32 39.45 429.84 33.32 432.81 63.31 447.29 69.46 444.32"/><polygon class="cls-6" points="64.42 460.05 70.16 457.28 70.16 446.31 64.42 449.08 64.42 460.05"/><path class="cls-6" d="M-520,216l8.71-4.21-30.05-14.5-8.68,4.19,29.84,14.41Z" transform="translate(591.85 227.22)"/><path class="cls-6" d="M-519.6,230.72a1,1,0,0,1-.59.94l-7.83,3.78a1.07,1.07,0,0,1-.46.11,1.13,1.13,0,0,1-.56-.16,1.06,1.06,0,0,1-.49-.89V221.92L-561,206.73l-10.4,5,22.67,10.95a1,1,0,0,1,.49,1.4,1.06,1.06,0,0,1-1,.59,1.06,1.06,0,0,1-.45-.11l-23.12-11.16v35.73l30.36,14.66V228.08l-2.77-1.34a1,1,0,0,1-.48-1.39,1,1,0,0,1,1.4-.49l2.9,1.4,7.38-3.56a1.05,1.05,0,0,1,1.4.48,1,1,0,0,1-.49,1.4l-7.24,3.5v35.73l30.36-14.66h0V213.42l-9.66,4.66Zm-44,15.77a1.06,1.06,0,0,1-1,.59A1.06,1.06,0,0,1-565,247l-4.76-2.3a1,1,0,0,1-.49-1.39,1.05,1.05,0,0,1,1.4-.49l4.76,2.3A1,1,0,0,1-563.63,246.49Zm4.38-2.86a1,1,0,0,1-.94.59,1.09,1.09,0,0,1-.46-.1l-9.14-4.41a1,1,0,0,1-.48-1.4,1,1,0,0,1,1.39-.49l9.14,4.41A1,1,0,0,1-559.25,243.63Z" transform="translate(591.85 227.22)"/><path class="cls-6" d="M-541.35,180.28a50.55,50.55,0,0,0-50.5,50.5c0,34.56,45.19,85.29,47.12,87.43a4.54,4.54,0,0,0,6.76,0c1.93-2.14,47.12-52.87,47.12-87.43A50.56,50.56,0,0,0-541.35,180.28Zm33.5,69.53a1.05,1.05,0,0,1-.59.94l-32.46,15.67a1,1,0,0,1-.45.1,1.06,1.06,0,0,1-.46-.1l-32.45-15.67a1.05,1.05,0,0,1-.59-.94V211.75a1,1,0,0,1,.59-.94l32.45-15.67a1,1,0,0,1,.91,0l32.46,15.67a1,1,0,0,1,.59.94Z" transform="translate(591.85 227.22)"/><rect class="cls-6" x="2308.66" y="455.28" width="72.75" height="72.75"/><rect class="cls-11" x="2308.66" y="382.53" width="72.75" height="72.75"/><rect class="cls-12" x="2235.91" y="455.28" width="72.75" height="72.75"/></svg>