<svg id="Layer_1" data-name="Layer 1" xmlns="http://www.w3.org/2000/svg" viewBox="0 0 819.36 599.26"><defs><style>.cls-1{fill:#00b1ff;}.cls-1,.cls-15,.cls-9{opacity:0.1;}.cls-1,.cls-10,.cls-18,.cls-2,.cls-4,.cls-9{isolation:isolate;}.cls-2{fill:#5e5e5e;opacity:0.56;}.cls-3{fill:#efb7b9;}.cls-4{opacity:0.05;}.cls-5{fill:none;}.cls-6{fill:#65617d;}.cls-7{fill:#dce0ed;}.cls-8{fill:#74e88f;}.cls-10,.cls-18{fill:#fff;}.cls-10{opacity:0.2;}.cls-11{fill:#ceede8;}.cls-12{fill:#444053;}.cls-13{fill:#a36468;}.cls-14{fill:#965d7b;}.cls-16{fill:#dda2a6;}.cls-17{fill:#b77b7f;}.cls-18{opacity:0.3;}</style></defs><title>scooter</title><g id="scooter"><path id="top-cloud" class="cls-1" d="M794.93,194.9a199.56,199.56,0,0,0-32.5-51.79l-450.91-4.44L682.77,86.52a211,211,0,0,0-75.33-14.94,211.12,211.12,0,0,0-252.2-8.53,210.28,210.28,0,0,0-96.52-23.27c-100.19,0-183.67,69.39-202.4,161.41Z" transform="translate(-15.32 -25.37)"/><path id="bottom-cloud" class="cls-1" d="M834.68,272.07a195.07,195.07,0,0,0-14-72.84l-781.49,82A196.46,196.46,0,0,0,20.86,327.5l242,36.07L15.32,389.87C22.77,494,112.07,576.3,221.15,576.3a208.86,208.86,0,0,0,141.79-54.83,208.81,208.81,0,0,0,143,55.93c82.36,0,153.43-46.89,186.53-114.68,66.41-21.08,118-74,135.65-140.2L522,275.05H834.65C834.67,274.05,834.68,273.06,834.68,272.07Z" transform="translate(-15.32 -25.37)"/><path id="Path_94" data-name="Path 94" class="cls-2" d="M425.56,607.38c105.06,0,190.23,3.86,190.23,8.62s-85.17,8.63-190.23,8.63S235.32,620.77,235.32,616,320.5,607.38,425.56,607.38Z" transform="translate(-15.32 -25.37)"/><path id="Path_30" data-name="Path 30" class="cls-3" d="M406.18,358.06S418.3,381,419.25,384.28a4.42,4.42,0,0,0,4.08,3.27s12.09,2.88,15,3.27,27.92,2.5,27.92,2.5,6.35.2,7.12-2.11c.7-2.12,13-13.22,20.08-3.53a7.05,7.05,0,0,1,1,6.3c-1.3,4.16-4,10.76-6.86,6.66-4-5.78-8.74-4.16-8.74-1.08s-6.47,1.94-8.58,2.37c-1.15.24-5.13,1.29-8.56,2.22a62.29,62.29,0,0,1-12.2,2c-6.82.45-16.88.82-20.44-.53-4.3-1.63-11.8-2-15-2.1a4.85,4.85,0,0,1-2.92-1.05A45.59,45.59,0,0,1,400,389.85c-5-8.66-15.3-26.6-14.61-31.8S406.18,358.06,406.18,358.06Z" transform="translate(-15.32 -25.37)"/><path id="Path_31" data-name="Path 31" class="cls-4" d="M406.18,358.06S418.3,381,419.25,384.28a4.42,4.42,0,0,0,4.08,3.27s12.09,2.88,15,3.27,27.92,2.5,27.92,2.5,6.35.2,7.12-2.11c.7-2.12,13-13.22,20.08-3.53a7.05,7.05,0,0,1,1,6.3c-1.3,4.16-4,10.76-6.86,6.66-4-5.78-8.74-4.16-8.74-1.08s-6.47,1.94-8.58,2.37c-1.15.24-5.13,1.29-8.56,2.22a62.29,62.29,0,0,1-12.2,2c-6.82.45-16.88.82-20.44-.53-4.3-1.63-11.8-2-15-2.1a4.85,4.85,0,0,1-2.92-1.05A45.59,45.59,0,0,1,400,389.85c-5-8.66-15.3-26.6-14.61-31.8S406.18,358.06,406.18,358.06Z" transform="translate(-15.32 -25.37)"/><path id="Path_32" data-name="Path 32" class="cls-5" d="M545.3,531.4c-5.49,6-9.54,8.32-9.34,2C536.53,514.36,503,428.2,503,428.2l9.9-.75C534.56,464.69,542.6,503,545.3,531.4Z" transform="translate(-15.32 -25.37)"/><path id="Path_33" data-name="Path 33" class="cls-6" d="M592.54,573a47.64,47.64,0,0,1-95.1,4q-.1-1.17-.15-2.31v0c0-.58,0-1.15,0-1.73a47.64,47.64,0,1,1,95.28,0Z" transform="translate(-15.32 -25.37)"/><circle id="Ellipse_7" data-name="Ellipse 7" class="cls-7" cx="529.58" cy="547.58" r="25.99"/><circle id="Ellipse_8" data-name="Ellipse 8" class="cls-6" cx="529.58" cy="547.58" r="15.59"/><path id="Path_34" data-name="Path 34" class="cls-6" d="M419.78,482.47l-114.72,2.31V467.87c1-13.61,15-18.38,27.72-19.88a79.64,79.64,0,0,1,29.64,2.22c24.34,6.45,39.85,7.7,47.49,7.82a7.26,7.26,0,0,1,7,5.92c.37,1.94.73,4,1.06,6.12.25,1.63.5,3.24.72,4.73C419.36,479.11,419.78,482.47,419.78,482.47Z" transform="translate(-15.32 -25.37)"/><path id="Path_35" data-name="Path 35" class="cls-8" d="M511.31,576H273a9.38,9.38,0,0,1-8.69-5.61c-1.8-4.3.71-7,3.4-8.64a27,27,0,0,0,11.73-14.35c2.54-7.51,5-19.26,6-37.61,1-19,7.88-28.37,15.3-32.92h0c9.59-5.86,20.11-3.66,20.11-3.66l96.63.77a18.64,18.64,0,0,1,4.72,3.08c8.61,8-3.95,18.48-3.95,18.48-26.95,28.49-6.55,57.36-6.55,57.36h49.45A45.49,45.49,0,0,0,487,545c6.68-4.62,9.24-9.08,10.27-11.79.76-2.06,1.53-4.13,2.46-6.12,13-28.13-2.68-73.89-9.43-91-1.67-4.26-2.8-6.74-2.8-6.74l15.51-1.16,9.81-.74h.1c21.61,37.27,29.65,75.57,32.34,103.94.26,2.68.46,5.27.63,7.76A34.63,34.63,0,0,1,513.59,576c-.76,0-1.52.07-2.28.07Z" transform="translate(-15.32 -25.37)"/><path id="Path_36" data-name="Path 36" class="cls-9" d="M418.73,474.8H305.06v-4.73H418C418.27,471.67,418.51,473.28,418.73,474.8Z" transform="translate(-15.32 -25.37)"/><path id="Path_37" data-name="Path 37" class="cls-9" d="M422.19,477.11H301.65a2.34,2.34,0,0,1-.91-.18c9.59-5.87,20.1-3.67,20.1-3.67l96.63.78A18.6,18.6,0,0,1,422.19,477.11Z" transform="translate(-15.32 -25.37)"/><path id="Rectangle_73" data-name="Rectangle 73" class="cls-7" d="M259.47,471.2H423.19a2.37,2.37,0,0,1,2.37,2.37h0a2.37,2.37,0,0,1-2.37,2.36H259.47a2.36,2.36,0,0,1-2.36-2.36h0A2.37,2.37,0,0,1,259.47,471.2Z" transform="translate(-15.32 -25.37)"/><path id="Path_38" data-name="Path 38" class="cls-9" d="M545.3,531.4c-5.49,6-9.54,8.32-9.34,2C536.53,514.36,503,428.2,503,428.2l9.9-.75C534.56,464.69,542.6,503,545.3,531.4Z" transform="translate(-15.32 -25.37)"/><path id="Path_39" data-name="Path 39" class="cls-9" d="M592.25,567.73c-5.69,1.36-12.7,2.75-21.36,4-3.23.47-6.69.93-10.4,1.36-8.85,1-19.09,2-30.92,2.68q-5,.3-10.43.54-10.14.46-21.7.7l-.15-2.31v0c10.77-4.34,27.72-16,30.45-46.17a47.67,47.67,0,0,1,64.51,39.24Z" transform="translate(-15.32 -25.37)"/><path id="Path_40" data-name="Path 40" class="cls-8" d="M488.31,576s54.69-5.94,35.85-89.27c0,0,27,24.78,43.83,38.55s46.78,32.74,46.78,32.74S596.88,574.77,488.31,576Z" transform="translate(-15.32 -25.37)"/><path id="Path_41" data-name="Path 41" class="cls-10" d="M488.31,576s54.69-5.94,35.85-89.27c0,0,27,24.78,43.83,38.55s46.78,32.74,46.78,32.74S596.88,574.77,488.31,576Z" transform="translate(-15.32 -25.37)"/><circle id="Ellipse_9" data-name="Ellipse 9" class="cls-6" cx="326.89" cy="547.58" r="47.64"/><circle id="Ellipse_10" data-name="Ellipse 10" class="cls-7" cx="326.89" cy="547.58" r="25.99"/><circle id="Ellipse_11" data-name="Ellipse 11" class="cls-6" cx="326.89" cy="547.58" r="15.59"/><path id="Path_42" data-name="Path 42" class="cls-9" d="M395.63,558.64c0-30.77-24.44-55.7-54.57-55.7s-54.58,24.94-54.58,55.7c0,1.3,0,2.59.14,3.86H395.49C395.58,561.23,395.63,559.94,395.63,558.64Z" transform="translate(-15.32 -25.37)"/><path id="Path_43" data-name="Path 43" class="cls-8" d="M393.61,557.68c0-29.63-23.53-53.64-52.55-53.64s-52.56,24-52.56,53.64c0,1.25.05,2.49.13,3.72H393.48C393.56,560.17,393.61,558.93,393.61,557.68Z" transform="translate(-15.32 -25.37)"/><path id="Path_44" data-name="Path 44" class="cls-10" d="M393.61,557.68c0,.86,0,1.73-.07,2.56,0,.39,0,.77-.06,1.16H288.63c0-.39,0-.77-.06-1.16,0-.85-.07-1.73-.07-2.56C288.5,528.05,312,504,341.06,504S393.61,528.05,393.61,557.68Z" transform="translate(-15.32 -25.37)"/><path id="Path_45" data-name="Path 45" class="cls-9" d="M393.54,560.27c0,.39,0,.77-.06,1.16H288.63c0-.39,0-.77-.06-1.16Z" transform="translate(-15.32 -25.37)"/><path id="Rectangle_74" data-name="Rectangle 74" class="cls-9" d="M271.67,562.55H400.54a6.16,6.16,0,0,1,6.16,6.16h0a6.16,6.16,0,0,1-6.16,6.16H271.67a6.16,6.16,0,0,1-6.16-6.16h0A6.16,6.16,0,0,1,271.67,562.55Z" transform="translate(-15.32 -25.37)"/><path id="Rectangle_75" data-name="Rectangle 75" class="cls-7" d="M271.67,561.4H400.54a6.16,6.16,0,0,1,6.16,6.16h0a6.16,6.16,0,0,1-6.16,6.16H271.67a6.16,6.16,0,0,1-6.16-6.16h0A6.16,6.16,0,0,1,271.67,561.4Z" transform="translate(-15.32 -25.37)"/><ellipse id="Ellipse_12" data-name="Ellipse 12" class="cls-9" cx="528.72" cy="465.19" rx="6.92" ry="17.41" transform="translate(-160.03 233.83) rotate(-24.33)"/><ellipse id="Ellipse_13" data-name="Ellipse 13" class="cls-7" cx="529.3" cy="464.61" rx="6.92" ry="17.41" transform="translate(-159.74 234.02) rotate(-24.33)"/><path id="Path_46" data-name="Path 46" class="cls-9" d="M512.86,427.45v9.05H495.24a30.93,30.93,0,0,1-4.9-.39c-1.67-4.26-2.8-6.74-2.8-6.74l15.51-1.15Z" transform="translate(-15.32 -25.37)"/><path id="Path_47" data-name="Path 47" class="cls-8" d="M512.86,435.32H495.24c-15.47,0-28-11.55-28-25.85v-2.4c0-14.28,12.54-25.85,28-25.85l17.62,1.6Z" transform="translate(-15.32 -25.37)"/><path id="Path_48" data-name="Path 48" class="cls-11" d="M483.84,396.53s10.54,5.63,4.47,15.16c0,0-7.43,12.2-19.13,11l-4.25-26.2S478.93,395.23,483.84,396.53Z" transform="translate(-15.32 -25.37)"/><path id="Path_49" data-name="Path 49" class="cls-9" d="M479.79,396a11.22,11.22,0,0,1,8.57,4.51c1.88,2.6,3,6.39,0,11.15,0,0-7.43,12.2-19.13,11.05l-4.25-26.2A122.63,122.63,0,0,1,479.79,396Z" transform="translate(-15.32 -25.37)"/><path id="Path_50" data-name="Path 50" class="cls-9" d="M512.28,382.82h3.4a10.75,10.75,0,0,1,10.75,10.75h0v31a10.75,10.75,0,0,1-10.75,10.75h-3.4Z" transform="translate(-15.32 -25.37)"/><path id="Path_51" data-name="Path 51" class="cls-7" d="M512.86,382.82h3.4A10.75,10.75,0,0,1,527,393.58v31a10.75,10.75,0,0,1-10.75,10.75h-3.4Z" transform="translate(-15.32 -25.37)"/><path id="Path_52" data-name="Path 52" class="cls-3" d="M387.81,450.25s2.72,1,6.35,2.38c5.77,2.22,13.92,5.47,16.75,7.25s13.38,4.7,21.28,6.75a69,69,0,0,0,17.93,2.21c6.15,0,13.59-.11,15.65-.11a6.35,6.35,0,0,1,1.07.08c2.16.36,2.07,1.81,2,2.15V471c-12.7,7.7-28.1,42.16-29.06,47.93-.73,4.33-7.07,16.34-10.2,22.08-1.05,1.92-1.74,3.14-1.74,3.14l3.86,4.42,11.16,5,10.58,4.62s11.17.58,11.36,0,.19-6.54.19-6.54a32.11,32.11,0,0,1-3.85-2.94,64.33,64.33,0,0,1-7.12-7.27c-6.15-7.32,6.16-21.37,6.16-21.37l23.68-30.8S485.8,485.86,495,472s0-21.37,0-21.37l-16.26-6.75c-28.2-10.56-62.22-19-62.22-19l-.49-.06-7.21-.9Z" transform="translate(-15.32 -25.37)"/><path id="Path_53" data-name="Path 53" class="cls-12" d="M460.47,553.62s2,2.38.51,2.6a25.35,25.35,0,0,1-5.49-.65l-25.2-13.28s-2.74-1.95-3.39,1.88-1.08,3.46-1.08,3.46-3.32,7.15,0,8.62,23.27,7.33,23.27,7.33,28.94,6.57,31.69-1-4.91-6.28-4.91-6.28-9.53-2.31-12.78-6.93C463.07,549.36,458.38,550.66,460.47,553.62Z" transform="translate(-15.32 -25.37)"/><path id="Path_54" data-name="Path 54" class="cls-4" d="M495,450.64l-16.26-6.75c-28.2-10.56-62.22-19-62.22-19l-.49-.06-7.21-.9-21,26.34s2.72,1,6.35,2.38c5.77,2.22,13.92,5.47,16.75,7.25s13.38,4.7,21.28,6.75a69,69,0,0,0,17.93,2.21c6.15,0,13.59-.11,15.65-.11a5.45,5.45,0,0,1,1.07.08c2.16.36,2.07,1.81,2,2.15V471c-12.7,7.7-28.1,42.15-29.06,47.93-.73,4.33-7.07,16.33-10.2,22.08l-.42.77c-.84-.14-1.89.16-2.26,2.34-.65,3.83-1.08,3.47-1.08,3.47s-3.32,7.14,0,8.62,23.25,7.33,23.25,7.33,29,6.57,31.69-1-4.91-6.28-4.91-6.28-9.53-2.31-12.78-6.93a6,6,0,0,0-.84.31c-.34-.27-.7-.58-1.09-.91a62.67,62.67,0,0,1-7.12-7.27c-6.16-7.32,6.16-21.37,6.16-21.37l23.68-30.8S485.8,485.86,495,472,495,450.64,495,450.64Z" transform="translate(-15.32 -25.37)"/><path id="Path_55" data-name="Path 55" class="cls-3" d="M368.42,321.46l.87,1.11.5.62,3.06,3.85s7.3,2.34,13.71,3.86c6.67,1.58,12.35,2.27,7.83-1.51-2.8-2.33-3-6.25-2-10.45a43.31,43.31,0,0,1,3.68-9.3c.22-.44.45-.86.67-1.28a76.16,76.16,0,0,1,4.76-7.69,136.67,136.67,0,0,0-12.76-7.83c-5.29-2.74-9.63-3.94-6.88,1.48,1.77,3.47,1.19,7.36-.46,11.08-.12.3-.26.58-.41.89a39.66,39.66,0,0,1-5.45,8A63.52,63.52,0,0,1,368.42,321.46Z" transform="translate(-15.32 -25.37)"/><path id="Path_56" data-name="Path 56" class="cls-12" d="M405,409.43l3.92,3.57,3.78,14.55h-6.31l-7-9.06Z" transform="translate(-15.32 -25.37)"/><path id="Path_57" data-name="Path 57" class="cls-9" d="M399.41,418.49l4.22,5.48,2.75,3.58h6.31l-.64-2.49-2.76-10.6-.38-1.46L405,409.43l-5.35,8.67Z" transform="translate(-15.32 -25.37)"/><path id="Path_58" data-name="Path 58" class="cls-9" d="M399.41,418.49l4.22,5.48,2.75,3.58h6.31l-.64-2.49-2.76-10.6-.38-1.46L405,409.43l-5.35,8.67Z" transform="translate(-15.32 -25.37)"/><path id="Path_59" data-name="Path 59" class="cls-3" d="M378.43,456.78s2.72,1,6.35,2.38c5.78,2.22,13.92,5.47,16.75,7.25s13.38,4.7,21.28,6.75a69.17,69.17,0,0,0,17.94,2.22c6.14-.06,13.58-.11,15.64-.11a5.45,5.45,0,0,1,1.07.08c2.16.35,2.08,1.8,2,2.15v.08c-12.7,7.7-28.11,42.15-29.07,47.93-.72,4.33-7.07,16.33-10.2,22.07-1.05,1.93-1.73,3.15-1.73,3.15l3.85,4.42,11.16,5,10.58,4.62s11.17.58,11.36,0,.19-6.54.19-6.54a30.6,30.6,0,0,1-3.85-2.94,64.33,64.33,0,0,1-7.12-7.27c-6.15-7.32,6.16-21.37,6.16-21.37l23.68-30.8s1.92-3.46,11.16-17.32,0-21.37,0-21.37l-14.81-8.47c-23.1-14.05-55.64-22.13-55.64-22.13l-.48-.07-7.22-.9Z" transform="translate(-15.32 -25.37)"/><path id="Path_60" data-name="Path 60" class="cls-9" d="M418.48,550.72l3.86,4.42,11.16,5,10.58,4.62s11.17.58,11.36,0,.19-6.54.19-6.54a32.11,32.11,0,0,1-3.85-2.94c-1.2.64-2.56,1.84-1.25,3.7,0,0,2,2.38.51,2.6s-5.48-.65-5.48-.65l-25.2-13.28-.15-.1Z" transform="translate(-15.32 -25.37)"/><path id="Path_61" data-name="Path 61" class="cls-12" d="M451.1,560.15s2,2.38.5,2.6-5.49-.65-5.49-.65l-25.19-13.28s-2.74-2-3.4,1.87-1.08,3.47-1.08,3.47-3.32,7.15,0,8.63,23.24,7.3,23.24,7.3,28.95,6.56,31.69-1-4.91-6.29-4.91-6.29-9.53-2.31-12.77-6.93C453.71,555.89,449,557.19,451.1,560.15Z" transform="translate(-15.32 -25.37)"/><path id="Path_62" data-name="Path 62" class="cls-9" d="M380,303.94c3.33,2.31,8.43,6,12.78,6a22.14,22.14,0,0,0,3.35-.26,76.41,76.41,0,0,1,5.43-9S376.12,283,381.9,294.32C383.8,298.09,381.92,300,380,303.94Z" transform="translate(-15.32 -25.37)"/><path id="Path_63" data-name="Path 63" class="cls-3" d="M372,288a20.76,20.76,0,0,0,9.47,17.44,18.66,18.66,0,0,0,2,1.15A20.8,20.8,0,1,0,372,288Z" transform="translate(-15.32 -25.37)"/><path id="Path_64" data-name="Path 64" class="cls-9" d="M378.43,456.78s2.72,1,6.35,2.38c2.28-2,4.62-4,5.6-4.3,2.12-.77,9.05-4.82,8.86-6s2.89-5.58,5.58-6.35,1.15-4.81,1.15-4.81,5.2-1.93,6.5-4.62,5.25-6.16,3.9-6a4,4,0,0,1-1.64-.64l-7.22-.9Z" transform="translate(-15.32 -25.37)"/><path id="Path_65" data-name="Path 65" class="cls-12" d="M362.64,449.85s8.86,7.32,9.27,10.59,6.32,3.08,6.32,3.08,8.86-8.47,11-9.24,9.05-4.82,8.86-6,2.89-5.58,5.58-6.35,1.15-4.81,1.15-4.81,5.2-1.93,6.5-4.62,5.25-6.17,3.9-6a9.94,9.94,0,0,1-3.15-1.5c-1.9-1.15-4.31-2.72-6.27-4s-3.67-2.53-3.67-2.53-.91-.16-2.46-.39c-8.38-1.21-35.67-4.31-42,5.78a15.32,15.32,0,0,0-1.87,4.31C352.93,438.94,362.64,449.85,362.64,449.85Z" transform="translate(-15.32 -25.37)"/><path id="Path_66" data-name="Path 66" class="cls-9" d="M371.91,426.51s-9.05,5.1-12.42,5.1S371.91,426.51,371.91,426.51Z" transform="translate(-15.32 -25.37)"/><path id="Path_67" data-name="Path 67" class="cls-9" d="M378,430.41s-13.47,4.53-13.47,8.08S363.22,429,378,430.41Z" transform="translate(-15.32 -25.37)"/><path id="Path_68" data-name="Path 68" class="cls-9" d="M410.19,410l-.19.26A.7.7,0,0,0,410.19,410Z" transform="translate(-15.32 -25.37)"/><path id="Path_69" data-name="Path 69" class="cls-9" d="M368.42,321.46l.87,1.11.5.62,3.06,3.85s7.3,2.34,13.71,3.86c6.67,1.58,12.35,2.27,7.83-1.51-2.8-2.33-3-6.25-2-10.45l-.2-.26s.2,3.89-2.1,4c-3.1.1-3.14-.95-6-2.16-3.69-1.55-7.47-4.16-8.53-6.19A63.7,63.7,0,0,1,368.42,321.46Z" transform="translate(-15.32 -25.37)"/><path id="Path_70" data-name="Path 70" class="cls-9" d="M355.76,428.18a6.7,6.7,0,0,0,5,.11c6-1.93,15.4-6.57,19.82-4.54,3.55,1.63,17.83,1.59,23.1.22,1.32-.34,2.07-.76,1.95-1.26a3.48,3.48,0,0,1,.2-1.69,31.39,31.39,0,0,1,3.52-6.56l-.38-1.46L405,409.43l-5.35,8.66c-8.37-1.21-35.67-4.31-42,5.77A15.58,15.58,0,0,0,355.76,428.18Z" transform="translate(-15.32 -25.37)"/><path id="Path_71" data-name="Path 71" class="cls-13" d="M351.87,423.67a6.55,6.55,0,0,0,8.27,3.47c6-1.92,15.4-6.57,19.83-4.54s25.6,1.45,25-1.05,5.2-10.39,5.2-10.39-3.15-.58-5.1-10.87c-.28-1.5-.54-3.22-.76-5.16a65.59,65.59,0,0,1-.34-12c.78-11.15,4.68-15.7,4.68-15.7s5.39-6.16.77-14.63c-2.42-4.44-12.18-16.75-12.32-22.23-.12-5-4.88-10.77-4.88-10.77s.2,3.89-2.1,4c-3.1.1-3.14-.95-6-2.15-4.21-1.78-8.53-4.92-8.81-7,0,0-17.65-.88-21.5,17s-2.5,27.72-1.93,29.84,5.58,29.45,1.54,41A39.77,39.77,0,0,0,351.87,423.67Z" transform="translate(-15.32 -25.37)"/><path id="Path_72" data-name="Path 72" class="cls-9" d="M380.64,392.22a45.28,45.28,0,0,0,12.51,13.67,87.73,87.73,0,0,1,10.11.68c-.29-1.5-.58-3.21-.77-5.15a65.72,65.72,0,0,1-.34-12,4.36,4.36,0,0,1-2.26-2.79c-1-3.28-9.55-18.87-9.55-18.87s-20.09-5.2-20.79,0S375.64,383.56,380.64,392.22Z" transform="translate(-15.32 -25.37)"/><path id="Path_73" data-name="Path 73" class="cls-3" d="M387.3,358.06s12.13,22.94,13.07,26.22a4.43,4.43,0,0,0,4.09,3.27s12.08,2.88,15,3.27,27.93,2.5,27.93,2.5,6.35.2,7.12-2.11c.7-2.12,13-13.22,20.08-3.53a7.06,7.06,0,0,1,1,6.3c-1.31,4.16-4,10.76-6.86,6.66-4.05-5.78-8.75-4.16-8.75-1.08s-6.47,1.94-8.58,2.37c-1.15.24-5.13,1.29-8.56,2.22a61.85,61.85,0,0,1-12.23,2c-6.82.45-16.87.82-20.43-.53-4.3-1.63-11.8-2-15-2.1a4.9,4.9,0,0,1-2.93-1.05,45.71,45.71,0,0,1-11.11-12.64c-5-8.66-15.3-26.6-14.61-31.8S387.3,358.06,387.3,358.06Z" transform="translate(-15.32 -25.37)"/><path id="Path_74" data-name="Path 74" class="cls-9" d="M383.26,326.27s6.5,10.78,9.5,18.48,6.67,21.17,6.67,21.17l-18.1-2.11-1.54-2.5s-12.92,8.08-11.38,11.55-3.47-5.2-3.08-15-1.39-27.34,0-31.57S379,323,383.26,326.27Z" transform="translate(-15.32 -25.37)"/><path id="Path_75" data-name="Path 75" class="cls-13" d="M365.36,356.69c-.39,9.81,4.62,18.47,3.07,15s11.39-11.55,11.39-11.55l1.52,2.5,18.09,2.12s-3.66-13.48-6.67-21.18a116.31,116.31,0,0,0-6.19-12.7c-1.85-3.36-3.31-5.77-3.31-5.77-2.49-1.92-7.77-3.05-12-2.78a14.35,14.35,0,0,0-2,.23c-1.73.34-3.13,1-3.75,2a2.94,2.94,0,0,0-.23.51C364,329.35,365.73,346.87,365.36,356.69Z" transform="translate(-15.32 -25.37)"/><path id="Path_76" data-name="Path 76" class="cls-9" d="M357.27,383.56s7.65,10.54,10,10.83C367.22,394.41,357.4,392.22,357.27,383.56Z" transform="translate(-15.32 -25.37)"/><path id="Path_77" data-name="Path 77" class="cls-9" d="M357.27,398.58s14.44,14.58,19.06,14.72S357.27,398.58,357.27,398.58Z" transform="translate(-15.32 -25.37)"/><path id="Path_78" data-name="Path 78" class="cls-9" d="M357.27,404.66s9.24,10.83,9.82,10.83S357.11,411.74,357.27,404.66Z" transform="translate(-15.32 -25.37)"/><path id="Path_79" data-name="Path 79" class="cls-9" d="M365.55,324.61a13.27,13.27,0,0,0,4.24-1.42c.5-.26,1-.55,1.46-.86a34.79,34.79,0,0,0,5.27-4.33c2.66-2.58,5.31-5.4,6.4-8.94a15.37,15.37,0,0,0,.54-2.49c.66-4.45.1-9.35,3.28-12.37a7.8,7.8,0,0,1,2-1.37c4.5-2.14,11-.75,14.4-4.62,2.14-2.45,2.08-5.85,3.72-8.51a18.4,18.4,0,0,1,3.2-3.22,20.79,20.79,0,1,0-28.66,28.88c-.12.29-.26.58-.41.88-4,8.09-12.6,15.18-12.6,15.18l.87,1.11C367.54,322.93,366.16,323.57,365.55,324.61Z" transform="translate(-15.32 -25.37)"/><path id="Path_80" data-name="Path 80" class="cls-14" d="M402,287.65c-3.91,4.48-12.13,1.87-16.43,6-3.78,3.6-2.28,9.88-3.82,14.86-1.1,3.54-3.75,6.36-6.4,8.94-3.87,3.77-8.82,7.59-14.11,6.51-3.13-.64-6.2-3-9.24-1.91-1.5.55-2.58,1.85-3.71,3a25.57,25.57,0,0,1-14.19,7.34,6,6,0,0,1-3.21-.15c-1.62-.65-2.49-2.42-4-3.36-2.88-1.85-6.59,0-9.59,1.7a67.12,67.12,0,0,1-55.14,4l4.68-2.31c-1-2-3.68-2.47-5.39-3.95-3.52-3.06-1.45-9.17,2.27-12s8.55-3.77,12.4-6.39a3.21,3.21,0,0,0,1.66-2.18,3.44,3.44,0,0,0-.63-1.93c-2.06-3.62-4.33-7.5-3.87-11.64.7-6.36,7.64-10.26,14-10.7S300,284.91,306.4,285a12.6,12.6,0,0,0,6.71-1.38c2.76-1.67,4.16-4.84,5.84-7.59a31,31,0,0,1,12.41-11.45c5.78-2.91,12.31-3.94,18.32-6.35s11.71-6.35,18.13-7.92c9.31-2.31,19.29.71,27.34,5.94,3.87,2.51,16.25,10.57,16.17,15.73-.07,3.06-4.05,4.71-5.55,7.12C404.1,281.8,404.15,285.2,402,287.65Z" transform="translate(-15.32 -25.37)"/><g id="Group_1" data-name="Group 1" class="cls-15"><path id="Path_81" data-name="Path 81" d="M276.63,302.89a3.5,3.5,0,0,1,.63,1.93,1.94,1.94,0,0,1-.2.7c-1.7-3-3.47-6.17-3.75-9.5A37.19,37.19,0,0,0,276.63,302.89Z" transform="translate(-15.32 -25.37)"/><path id="Path_82" data-name="Path 82" d="M260.92,325.35c1.7,1.49,4.39,1.93,5.39,4l-1.65.82a19.42,19.42,0,0,1-3.16-1.89,5.44,5.44,0,0,1-1.8-4.49A4.91,4.91,0,0,0,260.92,325.35Z" transform="translate(-15.32 -25.37)"/><path id="Path_83" data-name="Path 83" d="M316.78,327.66c3-1.66,6.71-3.55,9.59-1.7,1.47.94,2.34,2.7,4,3.36a6,6,0,0,0,3.21.15,25.6,25.6,0,0,0,14.2-7.34c1.12-1.15,2.2-2.45,3.71-3,3-1.08,6.09,1.27,9.24,1.91,5.29,1.08,10.23-2.74,14.11-6.51,2.65-2.58,5.3-5.4,6.4-8.94,1.55-5,0-11.26,3.82-14.86,4.32-4.1,12.52-1.5,16.43-6,2.13-2.44,2.09-5.85,3.73-8.51,1.38-2.24,5-3.84,5.48-6.55a5,5,0,0,1,.64,2.31c-.06,3.06-4,4.72-5.55,7.12-1.64,2.67-1.59,6.07-3.72,8.52-3.92,4.48-12.13,1.87-16.43,6-3.78,3.6-2.28,9.88-3.82,14.86-1.1,3.54-3.75,6.35-6.4,8.94-3.88,3.77-8.82,7.59-14.11,6.51-3.14-.64-6.22-3-9.24-1.91-1.52.55-2.6,1.85-3.72,3a25.57,25.57,0,0,1-14.19,7.34,6,6,0,0,1-3.21-.15c-1.62-.66-2.5-2.42-4-3.36-2.89-1.85-6.6,0-9.59,1.7a67.13,67.13,0,0,1-55.14,4l3.23-1.6A67.25,67.25,0,0,0,316.78,327.66Z" transform="translate(-15.32 -25.37)"/></g><path id="Path_84" data-name="Path 84" class="cls-9" d="M459.49,477.49l4.85-2.35v-.91c0-.36-3.87.42-6.88,1.09C459.62,475.7,459.54,477.15,459.49,477.49Z" transform="translate(-15.32 -25.37)"/><ellipse id="Ellipse_14" data-name="Ellipse 14" class="cls-11" cx="448.39" cy="384.79" rx="11.7" ry="14.23"/><path id="Path_85" data-name="Path 85" class="cls-16" d="M351.1,391.63l-18.81,18.55-61.83-1.08,17-17.47Z" transform="translate(-15.32 -25.37)"/><path id="Path_86" data-name="Path 86" class="cls-17" d="M351.09,455.08V391.63l-18.8,18.55v62.09Z" transform="translate(-15.32 -25.37)"/><path id="Path_87" data-name="Path 87" class="cls-16" d="M270.46,409.1v63.17h61.83V410.18Z" transform="translate(-15.32 -25.37)"/><path id="Path_88" data-name="Path 88" class="cls-18" d="M270.46,409.1v63.17h61.83V410.18Z" transform="translate(-15.32 -25.37)"/><path id="Path_89" data-name="Path 89" class="cls-7" d="M327.27,427.57l-46-7.9-6,30.19,47.35,8.7Z" transform="translate(-15.32 -25.37)"/><path id="Path_90" data-name="Path 90" class="cls-11" d="M318.18,434.62l-30.92-4.86-.77,4L317.4,439Z" transform="translate(-15.32 -25.37)"/><path id="Path_91" data-name="Path 91" class="cls-11" d="M309.68,443.24l-17.58-2.55-.78,4.47,18.36,2.58Z" transform="translate(-15.32 -25.37)"/><path id="Path_92" data-name="Path 92" class="cls-6" d="M343.49,424.93l-.83-25-4.84,4.77.85,25Z" transform="translate(-15.32 -25.37)"/><path id="Path_93" data-name="Path 93" class="cls-6" d="M281.24,398l59.42.8,2,1.13-4.84,4.77-1.67-1-58.85-1.67Z" transform="translate(-15.32 -25.37)"/></g></svg>