<?xml version="1.0"?>
<svg xmlns="http://www.w3.org/2000/svg" xmlns:xlink="http://www.w3.org/1999/xlink" version="1.1" id="Capa_1" x="0px" y="0px" viewBox="0 0 384.967 384.967" style="enable-background:new 0 0 384.967 384.967;" xml:space="preserve" width="512px" height="512px" class=""><g><g>
	<g id="Arrow_Dotted_Right_2_">
		<path d="M277.792,103.395C279.56,98.992,277.118,105.008,277.792,103.395L277.792,103.395z" data-original="#000000" class="active-path" data-old_color="#000000" fill="#F6D2B7"/>
		<path d="M381.529,184.155l-84.08-84.561c-5.943-6.232-16.469-4.138-19.658,3.79c-0.674,1.612-0.95,3.32-0.902,5.041v168.184    c-0.289,10.671,12.872,16.602,20.476,8.926l84.164-84.2C386.113,196.702,386.113,188.799,381.529,184.155z M300.758,247.627    V137.934l55.279,54.81L300.758,247.627z" data-original="#000000" class="active-path" data-old_color="#000000" fill="#F6D2B7"/>
		<path d="M228.576,156.69c-19.934,0-36.091,16.157-36.091,36.091s16.157,36.091,36.091,36.091s36.091-16.157,36.091-36.091    S248.51,156.69,228.576,156.69z M228.576,204.811c-6.641,0-12.03-5.39-12.03-12.03s5.39-12.03,12.03-12.03s12.03,5.39,12.03,12.03    S235.216,204.811,228.576,204.811z" data-original="#000000" class="active-path" data-old_color="#000000" fill="#F6D2B7"/>
		<path d="M132.333,156.69c-19.934,0-36.091,16.157-36.091,36.091s16.157,36.091,36.091,36.091s36.091-16.157,36.091-36.091    S152.268,156.69,132.333,156.69z M132.333,204.811c-6.641,0-12.03-5.39-12.03-12.03s5.39-12.03,12.03-12.03    c6.641,0,12.03,5.39,12.03,12.03S138.974,204.811,132.333,204.811z" data-original="#000000" class="active-path" data-old_color="#000000" fill="#F6D2B7"/>
		<path d="M36.091,156.69C16.157,156.69,0,172.846,0,192.781s16.157,36.091,36.091,36.091s36.091-16.157,36.091-36.091    S56.025,156.69,36.091,156.69z M36.091,204.811c-6.641,0-12.03-5.39-12.03-12.03s5.39-12.03,12.03-12.03s12.03,5.39,12.03,12.03    S42.732,204.811,36.091,204.811z" data-original="#000000" class="active-path" data-old_color="#000000" fill="#F6D2B7"/>
	</g>
	<g>
	</g>
	<g>
	</g>
	<g>
	</g>
	<g>
	</g>
	<g>
	</g>
	<g>
	</g>
</g></g> </svg>
